<?xml version="1.0" encoding="UTF-8"?>
<svg width="752pt" height="752pt" version="1.1" viewBox="0 0 752 752" xmlns="http://www.w3.org/2000/svg">
 <g>
  <path d="m579.64 162.89h-407.28c-5.2305 0-9.4727 4.2422-9.4727 9.4727v407.28c0 5.2266 4.2422 9.4727 9.4727 9.4727h407.28c5.2266 0 9.4727-4.2422 9.4727-9.4727l-0.003907-407.28c0-5.2305-4.2422-9.4727-9.4727-9.4727zm-169.34 18.941h40.18v51.094h-40.18zm-54.383 0h40.18v51.094h-40.18zm-54.395 0h40.18v51.094h-40.18zm-54.383 0h40.18v51.094h-40.18zm-14.207 323.04h-51.098v-40.18h51.094zm0-54.387h-51.098v-40.18h51.094zm0-54.391h-51.098v-40.18h51.094zm0-54.387h-51.098v-40.18h51.094zm0-54.391h-51.098v-40.18h51.094zm54.383 282.86h-40.18l0.003907-51.094h40.18zm54.391 0h-40.18l0.003906-51.094h40.18zm54.387 0h-40.18l0.003906-51.094h40.18zm54.391 0h-40.18l0.003907-51.094h40.18zm54.387 0h-40.18v-51.094h40.18zm0-275.75v210.44h-257.73v-257.72h257.72v47.281zm0-61.488h-40.18v-51.098h40.18zm50.223 321.11c2.7734 2.7695 2.7734 7.2734 0 10.043-1.3867 1.3867-3.207 2.0781-5.0234 2.0781-1.8203 0-3.6367-0.69141-5.0234-2.0781l-13.25-13.25c-2.7734-2.7695-2.7734-7.2734 0-10.043l13.25-13.25c2.7734-2.7734 7.2695-2.7734 10.043 0 2.7734 2.7695 2.7734 7.2734 0 10.043l-8.2266 8.2266zm15.078-49.168h-51.094v-40.18h51.094zm0-54.387h-51.094v-40.18l51.094 0.003907zm0-54.391h-51.094v-40.18l51.094 0.003906zm0-54.387h-51.094v-40.18l51.094 0.003906zm0-54.391h-51.094v-40.18l51.094 0.003907z"/>
  <path d="m336.21 545.81c0 8.0625-6.5352 14.602-14.598 14.602-8.0664 0-14.602-6.5391-14.602-14.602s6.5352-14.602 14.602-14.602c8.0625 0 14.598 6.5391 14.598 14.602"/>
  <path d="m444.99 206.2c0 8.0625-6.5391 14.598-14.602 14.598s-14.602-6.5352-14.602-14.598c0-8.0664 6.5391-14.602 14.602-14.602s14.602 6.5352 14.602 14.602"/>
  <path d="m193.29 336.21h25.82c0.9375 0 1.6953-0.75781 1.6953-1.6953v-25.812c0-0.9375-0.75781-1.6953-1.6953-1.6953h-25.82c-0.9375 0-1.6953 0.75781-1.6953 1.6953v25.82c0 0.92969 0.75781 1.6875 1.6953 1.6875z"/>
  <path d="m558.71 415.79h-25.816c-0.9375 0-1.6953 0.75781-1.6953 1.6953v25.82c0 0.9375 0.75781 1.6953 1.6953 1.6953h25.82c0.9375 0 1.6953-0.75781 1.6953-1.6953v-25.82c-0.003906-0.9375-0.76172-1.6953-1.6992-1.6953z"/>
  <path d="m350.38 341.2c0 5.0664-4.1055 9.1719-9.1719 9.1719-5.0664 0-9.1719-4.1055-9.1719-9.1719s4.1055-9.1719 9.1719-9.1719c5.0664 0 9.1719 4.1055 9.1719 9.1719"/>
  <path d="m388.36 336.18-42.133-42.133c-2.7734-2.7734-7.2695-2.7734-10.043 0l-42.133 42.133c-2.7734 2.7695-2.7734 7.2695 0 10.043l42.133 42.141c1.332 1.332 3.1406 2.0781 5.0234 2.0781 1.8867 0 3.6875-0.75 5.0234-2.0781l42.133-42.141c2.7695-2.7734 2.7695-7.2734-0.003907-10.043zm-47.16 37.113-32.09-32.09 32.09-32.09 32.09 32.09z"/>
  <path d="m409.68 401.62c0 4.4492-3.6055 8.0547-8.0547 8.0547-4.4453 0-8.0508-3.6055-8.0508-8.0547 0-4.4453 3.6055-8.0508 8.0508-8.0508 4.4492 0 8.0547 3.6055 8.0547 8.0508"/>
  <path d="m428.02 419.3c0 4.4492-3.6055 8.0508-8.0508 8.0508s-8.0508-3.6016-8.0508-8.0508c0-4.4453 3.6055-8.0508 8.0508-8.0508s8.0508 3.6055 8.0508 8.0508"/>
  <path d="m440.6 373.9h-59.594c-3.9219 0-7.1055 3.1758-7.1055 7.1055v59.59c0 3.9258 3.1836 7.1055 7.1055 7.1055l59.594-0.003907c3.9219 0 7.1055-3.1758 7.1055-7.1055v-59.586c0-3.9258-3.1836-7.1055-7.1055-7.1055zm-7.1016 59.59h-45.387v-45.383h45.387z"/>
 </g>
</svg>
